<svg width="83" height="83" viewBox="0 0 83 83" fill="none" xmlns="http://www.w3.org/2000/svg">
<path d="M52.0822 44.2604L53.3987 35.6851H45.1699V30.1202C45.1699 27.7746 46.319 25.4868 50.0047 25.4868H53.7452V18.1864C53.7452 18.1864 50.3512 17.6074 47.1053 17.6074C40.3291 17.6074 35.9 21.7152 35.9 29.1503V35.6865H28.3672V44.2619H35.9V64.9931H45.1699V44.2619L52.0822 44.2604Z" fill="white"/>
<path d="M41.3438 1.41406C63.3976 1.41406 81.2734 19.2728 81.2734 41.2988C81.2734 63.3248 63.3976 81.1826 41.3438 81.1826C19.2899 81.1826 1.41414 63.3248 1.41406 41.2988C1.41406 19.2728 19.2899 1.41406 41.3438 1.41406Z" stroke="white" stroke-width="2.82868"/>
<path d="M52.0822 44.2604L53.3987 35.6851H45.1699V30.1202C45.1699 27.7746 46.319 25.4868 50.0047 25.4868H53.7452V18.1864C53.7452 18.1864 50.3512 17.6074 47.1053 17.6074C40.3291 17.6074 35.9 21.7152 35.9 29.1503V35.6865H28.3672V44.2619H35.9V64.9931H45.1699V44.2619L52.0822 44.2604Z" fill="white"/>
</svg>
