<svg width="53" height="55" viewBox="0 0 53 55" fill="none" xmlns="http://www.w3.org/2000/svg">
<path d="M27.0391 22.5V33.15H41.5919C40.9529 36.575 39.0352 39.4751 36.1591 41.4251L44.935 48.3501C50.0482 43.5503 52.9982 36.5002 52.9982 28.1253C52.9982 26.1753 52.8261 24.3001 52.5065 22.5003L27.0391 22.5Z" fill="#4285F4"/>
<path d="M11.8839 32.7344L9.9046 34.2752L2.89844 39.8251C7.34788 48.8001 16.4674 55.0002 27.0378 55.0002C34.3386 55.0002 40.4596 52.5501 44.9338 48.3502L36.1578 41.4252C33.7487 43.0752 30.6759 44.0753 27.0378 44.0753C20.0072 44.0753 14.0338 39.2503 11.895 32.7503L11.8839 32.7344Z" fill="#34A853"/>
<path d="M2.90054 15.1758C1.05694 18.8756 0 23.0507 0 27.5006C0 31.9505 1.05694 36.1256 2.90054 39.8255C2.90054 39.8503 11.8979 32.7254 11.8979 32.7254C11.3571 31.0755 11.0375 29.3256 11.0375 27.5003C11.0375 25.6751 11.3571 23.9252 11.8979 22.2752L2.90054 15.1758Z" fill="#FBBC05"/>
<path d="M27.0384 10.95C31.0208 10.95 34.5606 12.35 37.3876 15.05L45.1311 7.17509C40.4358 2.72517 34.3395 0 27.0384 0C16.4679 0 7.34788 6.17499 2.89844 15.175L11.8956 22.275C14.0341 15.775 20.0078 10.95 27.0384 10.95Z" fill="#EA4335"/>
</svg>
