<svg width="83" height="83" viewBox="0 0 83 83" fill="none" xmlns="http://www.w3.org/2000/svg">
<path d="M30.9207 18.2871H50.3688C57.7776 18.2871 63.7973 24.3068 63.7973 31.7156V51.1637C63.7973 54.7252 62.3825 58.1408 59.8642 60.6591C57.3458 63.1774 53.9302 64.5922 50.3688 64.5922H30.9207C23.5118 64.5922 17.4922 58.5725 17.4922 51.1637V31.7156C17.4922 28.1541 18.907 24.7385 21.4253 22.2202C23.9436 19.7019 27.3592 18.2871 30.9207 18.2871ZM30.4576 22.9176C28.2471 22.9176 26.127 23.7958 24.5639 25.3589C23.0008 26.922 22.1227 29.042 22.1227 31.2525V51.6268C22.1227 56.2341 25.8503 59.9617 30.4576 59.9617H50.8318C53.0424 59.9617 55.1624 59.0835 56.7255 57.5204C58.2886 55.9573 59.1668 53.8373 59.1668 51.6268V31.2525C59.1668 26.6452 55.4392 22.9176 50.8318 22.9176H30.4576ZM52.7998 26.3905C53.5674 26.3905 54.3035 26.6954 54.8462 27.2381C55.389 27.7809 55.6939 28.517 55.6939 29.2846C55.6939 30.0521 55.389 30.7882 54.8462 31.331C54.3035 31.8737 53.5674 32.1786 52.7998 32.1786C52.0323 32.1786 51.2961 31.8737 50.7534 31.331C50.2106 30.7882 49.9057 30.0521 49.9057 29.2846C49.9057 28.517 50.2106 27.7809 50.7534 27.2381C51.2961 26.6954 52.0323 26.3905 52.7998 26.3905ZM40.6447 29.8634C43.7149 29.8634 46.6594 31.083 48.8304 33.254C51.0014 35.425 52.221 38.3694 52.221 41.4396C52.221 44.5099 51.0014 47.4543 48.8304 49.6253C46.6594 51.7963 43.7149 53.0159 40.6447 53.0159C37.5745 53.0159 34.63 51.7963 32.4591 49.6253C30.2881 47.4543 29.0685 44.5099 29.0685 41.4396C29.0685 38.3694 30.2881 35.425 32.4591 33.254C34.63 31.083 37.5745 29.8634 40.6447 29.8634ZM40.6447 34.4939C38.8026 34.4939 37.0359 35.2257 35.7333 36.5283C34.4307 37.8308 33.699 39.5975 33.699 41.4396C33.699 43.2818 34.4307 45.0485 35.7333 46.351C37.0359 47.6536 38.8026 48.3854 40.6447 48.3854C42.4869 48.3854 44.2535 47.6536 45.5561 46.351C46.8587 45.0485 47.5905 43.2818 47.5905 41.4396C47.5905 39.5975 46.8587 37.8308 45.5561 36.5283C44.2535 35.2257 42.4869 34.4939 40.6447 34.4939Z" fill="white"/>
<path d="M41.3438 1.41406C63.3976 1.41406 81.2734 19.2728 81.2734 41.2988C81.2734 63.3248 63.3976 81.1826 41.3438 81.1826C19.2899 81.1826 1.41414 63.3248 1.41406 41.2988C1.41406 19.2728 19.2899 1.41406 41.3438 1.41406Z" stroke="white" stroke-width="2.82868"/>
<path d="M30.9207 18.2891H50.3688C57.7776 18.2891 63.7973 24.3087 63.7973 31.7175V51.1657C63.7973 54.7271 62.3825 58.1427 59.8642 60.661C57.3458 63.1794 53.9302 64.5941 50.3688 64.5941H30.9207C23.5118 64.5941 17.4922 58.5745 17.4922 51.1657V31.7175C17.4922 28.1561 18.907 24.7405 21.4253 22.2222C23.9436 19.7038 27.3592 18.2891 30.9207 18.2891ZM30.4576 22.9196C28.2471 22.9196 26.127 23.7977 24.5639 25.3608C23.0008 26.9239 22.1227 29.0439 22.1227 31.2545V51.6287C22.1227 56.2361 25.8503 59.9636 30.4576 59.9636H50.8318C53.0424 59.9636 55.1624 59.0855 56.7255 57.5224C58.2886 55.9593 59.1668 53.8393 59.1668 51.6287V31.2545C59.1668 26.6471 55.4392 22.9196 50.8318 22.9196H30.4576ZM52.7998 26.3925C53.5674 26.3925 54.3035 26.6974 54.8462 27.2401C55.389 27.7828 55.6939 28.519 55.6939 29.2865C55.6939 30.0541 55.389 30.7902 54.8462 31.3329C54.3035 31.8757 53.5674 32.1806 52.7998 32.1806C52.0323 32.1806 51.2961 31.8757 50.7534 31.3329C50.2106 30.7902 49.9057 30.0541 49.9057 29.2865C49.9057 28.519 50.2106 27.7828 50.7534 27.2401C51.2961 26.6974 52.0323 26.3925 52.7998 26.3925ZM40.6447 29.8653C43.7149 29.8653 46.6594 31.085 48.8304 33.2559C51.0014 35.4269 52.221 38.3714 52.221 41.4416C52.221 44.5118 51.0014 47.4563 48.8304 49.6273C46.6594 51.7982 43.7149 53.0179 40.6447 53.0179C37.5745 53.0179 34.63 51.7982 32.4591 49.6273C30.2881 47.4563 29.0685 44.5118 29.0685 41.4416C29.0685 38.3714 30.2881 35.4269 32.4591 33.2559C34.63 31.085 37.5745 29.8653 40.6447 29.8653ZM40.6447 34.4958C38.8026 34.4958 37.0359 35.2276 35.7333 36.5302C34.4307 37.8328 33.699 39.5995 33.699 41.4416C33.699 43.2837 34.4307 45.0504 35.7333 46.353C37.0359 47.6556 38.8026 48.3874 40.6447 48.3874C42.4869 48.3874 44.2535 47.6556 45.5561 46.353C46.8587 45.0504 47.5905 43.2837 47.5905 41.4416C47.5905 39.5995 46.8587 37.8328 45.5561 36.5302C44.2535 35.2276 42.4869 34.4958 40.6447 34.4958Z" fill="white"/>
</svg>
