<svg width="83" height="83" viewBox="0 0 83 83" fill="none" xmlns="http://www.w3.org/2000/svg">
<path d="M53.1543 25.3889C51.3792 23.3617 50.4008 20.7589 50.4011 18.0645H42.3754V50.2711C42.3148 52.0144 41.5794 53.666 40.3244 54.8774C39.0693 56.0888 37.3928 56.7654 35.6484 56.7643C31.9602 56.7643 28.8954 53.7515 28.8954 50.0113C28.8954 45.544 33.2069 42.1934 37.6483 43.57V35.3625C28.6876 34.1678 20.8438 41.1285 20.8438 50.0113C20.8438 58.6604 28.0123 64.816 35.6224 64.816C43.778 64.816 50.4011 58.1929 50.4011 50.0113V33.6743C53.6555 36.0115 57.5628 37.2654 61.5695 37.2586V29.2329C61.5695 29.2329 56.6866 29.4666 53.1543 25.3889Z" fill="white"/>
<path d="M41.3438 1.41406C63.3976 1.41406 81.2734 19.2728 81.2734 41.2988C81.2734 63.3248 63.3976 81.1826 41.3438 81.1826C19.2899 81.1826 1.41414 63.3248 1.41406 41.2988C1.41406 19.2728 19.2899 1.41406 41.3438 1.41406Z" stroke="white" stroke-width="2.82868"/>
<path d="M53.1543 25.3889C51.3792 23.3617 50.4008 20.7589 50.4011 18.0645H42.3754V50.2711C42.3148 52.0144 41.5794 53.666 40.3244 54.8774C39.0693 56.0888 37.3928 56.7654 35.6484 56.7643C31.9602 56.7643 28.8954 53.7515 28.8954 50.0113C28.8954 45.544 33.2069 42.1934 37.6483 43.57V35.3625C28.6876 34.1678 20.8438 41.1285 20.8438 50.0113C20.8438 58.6604 28.0123 64.816 35.6224 64.816C43.778 64.816 50.4011 58.1929 50.4011 50.0113V33.6743C53.6555 36.0115 57.5628 37.2654 61.5695 37.2586V29.2329C61.5695 29.2329 56.6866 29.4666 53.1543 25.3889Z" fill="white"/>
</svg>
