<svg width="83" height="83" viewBox="0 0 83 83" fill="none" xmlns="http://www.w3.org/2000/svg">
<path d="M41.1074 1.40625C63.0351 1.40631 80.8086 19.1624 80.8086 41.0625C80.8086 62.9626 63.0351 80.7187 41.1074 80.7188C19.1797 80.7188 1.40625 62.9626 1.40625 41.0625C1.40625 19.1624 19.1797 1.40625 41.1074 1.40625Z" stroke="white" stroke-width="2.8125"/>
<mask id="mask0_1414_3428" style="mask-type:luminance" maskUnits="userSpaceOnUse" x="17" y="18" width="48" height="47">
<path d="M17.8984 18H64.335V64.4006H17.8984V18Z" fill="white"/>
</mask>
<g mask="url(#mask0_1414_3428)">
<path d="M54.4672 20.1738H61.5886L46.0323 37.985L64.335 62.2261H50.006L38.775 47.527L25.9386 62.2261H18.8106L35.4481 43.1687L17.8984 20.1771H32.5923L42.7287 33.6101L54.4672 20.1738ZM51.963 57.9572H55.9101L30.4363 24.2206H26.2039L51.963 57.9572Z" fill="white"/>
</g>
</svg>
