<svg width="83" height="83" viewBox="0 0 83 83" fill="none" xmlns="http://www.w3.org/2000/svg">
<path d="M35.7529 49.1267L48.8059 41.5817L35.7529 34.0366V49.1267ZM64.8265 29.4341C65.1535 30.6162 65.3798 32.2007 65.5307 34.2127C65.7068 36.2247 65.7822 37.96 65.7822 39.4691L65.9331 41.5817C65.9331 47.0895 65.5307 51.1387 64.8265 53.7292C64.1978 55.9927 62.739 57.4514 60.4755 58.0802C59.2935 58.4071 57.1306 58.6335 53.8107 58.7844C50.5412 58.9604 47.5484 59.0359 44.7818 59.0359L40.783 59.1868C30.245 59.1868 23.6809 58.7844 21.0904 58.0802C18.8269 57.4514 17.3682 55.9927 16.7394 53.7292C16.4125 52.5471 16.1861 50.9627 16.0352 48.9507C15.8592 46.9386 15.7837 45.2033 15.7837 43.6943L15.6328 41.5817C15.6328 36.0738 16.0352 32.0246 16.7394 29.4341C17.3682 27.1706 18.8269 25.7119 21.0904 25.0832C22.2725 24.7562 24.4354 24.5299 27.7552 24.379C31.0247 24.2029 34.0176 24.1275 36.7841 24.1275L40.783 23.9766C51.3209 23.9766 57.8851 24.379 60.4755 25.0832C62.739 25.7119 64.1978 27.1706 64.8265 29.4341Z" fill="white"/>
<path d="M41.3438 1.41406C63.3976 1.41406 81.2734 19.2728 81.2734 41.2988C81.2734 63.3248 63.3976 81.1826 41.3438 81.1826C19.2899 81.1826 1.41414 63.3248 1.41406 41.2988C1.41406 19.2728 19.2899 1.41406 41.3438 1.41406Z" stroke="white" stroke-width="2.82868"/>
<path d="M35.7529 49.1267L48.8059 41.5817L35.7529 34.0366V49.1267ZM64.8265 29.4341C65.1535 30.6162 65.3798 32.2007 65.5307 34.2127C65.7068 36.2247 65.7822 37.96 65.7822 39.4691L65.9331 41.5817C65.9331 47.0895 65.5307 51.1387 64.8265 53.7292C64.1978 55.9927 62.739 57.4514 60.4755 58.0802C59.2935 58.4071 57.1306 58.6335 53.8107 58.7844C50.5412 58.9604 47.5484 59.0359 44.7818 59.0359L40.783 59.1868C30.245 59.1868 23.6809 58.7844 21.0904 58.0802C18.8269 57.4514 17.3682 55.9927 16.7394 53.7292C16.4125 52.5471 16.1861 50.9627 16.0352 48.9507C15.8592 46.9386 15.7837 45.2033 15.7837 43.6943L15.6328 41.5817C15.6328 36.0738 16.0352 32.0246 16.7394 29.4341C17.3682 27.1706 18.8269 25.7119 21.0904 25.0832C22.2725 24.7562 24.4354 24.5299 27.7552 24.379C31.0247 24.2029 34.0176 24.1275 36.7841 24.1275L40.783 23.9766C51.3209 23.9766 57.8851 24.379 60.4755 25.0832C62.739 25.7119 64.1978 27.1706 64.8265 29.4341Z" fill="white"/>
</svg>
