<svg width="58" height="58" viewBox="0 0 58 58" fill="none" xmlns="http://www.w3.org/2000/svg">
<path d="M39.552 15.5039C34.9845 15.5039 33.0542 17.6834 29.8733 17.6834C26.6119 17.6834 24.1243 15.5198 20.1662 15.5198C16.292 15.5198 12.1606 17.8851 9.53702 21.9145C5.85312 27.5967 6.47843 38.2984 12.445 47.4152C14.5792 50.6789 17.4293 54.339 21.1676 54.3786H21.2356C24.4845 54.3786 25.4496 52.2512 29.9209 52.2263H29.9888C34.3932 52.2263 35.2768 54.3662 38.5121 54.3662H38.5801C42.3184 54.3265 45.3214 50.2711 47.4557 47.0199C48.9918 44.6818 49.5627 43.5082 50.7408 40.863C42.1099 37.587 40.7234 25.3514 49.2591 20.6605C46.6536 17.398 42.9924 15.5084 39.5407 15.5084L39.552 15.5039Z" fill="white"/>
<path d="M38.5452 3.625C35.8265 3.80965 32.6546 5.54059 30.7968 7.80055C29.1111 9.84867 27.7246 12.8869 28.2683 15.8333H28.4858C31.3813 15.8333 34.3447 14.0899 36.0757 11.856C37.7432 9.72973 39.0074 6.71645 38.5452 3.625Z" fill="white"/>
</svg>
