<svg width="83" height="83" viewBox="0 0 83 83" fill="none" xmlns="http://www.w3.org/2000/svg">
<path d="M42.6964 17.2383C32.3899 17.2383 22.2266 24.1093 22.2266 35.2031C22.2266 42.253 26.1989 46.2969 28.5966 46.2969C29.5986 46.2969 30.1712 43.5414 30.1712 42.7541C30.1712 41.8236 27.8093 39.8196 27.8093 35.9546C27.8093 27.8669 33.9645 22.1768 41.9091 22.1768C48.7444 22.1768 53.7903 26.0775 53.7903 33.1991C53.7903 38.5312 51.6431 48.5157 44.7363 48.5157C42.2312 48.5157 40.084 46.7264 40.084 44.1139C40.084 40.3206 42.7322 36.6346 42.7322 32.7338C42.7322 26.0775 33.3204 27.2943 33.3204 35.3105C33.3204 36.9924 33.5351 38.8533 34.2866 40.3921C32.8909 46.3685 30.0638 55.2435 30.0638 61.3988C30.0638 63.2955 30.3501 65.1564 30.529 67.0531C30.8869 67.4467 30.708 67.411 31.209 67.1962C36.2549 60.2537 36.0759 58.9296 38.3663 49.8398C39.6188 52.2017 42.8038 53.4542 45.3089 53.4542C55.9732 53.4542 60.7686 43.0761 60.7686 33.7001C60.7686 23.7156 52.1441 17.2383 42.6964 17.2383Z" fill="white"/>
<path d="M41.3438 1.41406C63.3976 1.41406 81.2734 19.2728 81.2734 41.2988C81.2734 63.3248 63.3976 81.1826 41.3438 81.1826C19.2899 81.1826 1.41414 63.3248 1.41406 41.2988C1.41406 19.2728 19.2899 1.41406 41.3438 1.41406Z" stroke="white" stroke-width="2.82868"/>
<path d="M42.6964 17.2383C32.3899 17.2383 22.2266 24.1093 22.2266 35.2031C22.2266 42.253 26.1989 46.2969 28.5966 46.2969C29.5986 46.2969 30.1712 43.5414 30.1712 42.7541C30.1712 41.8236 27.8093 39.8196 27.8093 35.9546C27.8093 27.8669 33.9645 22.1768 41.9091 22.1768C48.7444 22.1768 53.7903 26.0775 53.7903 33.1991C53.7903 38.5312 51.6431 48.5157 44.7363 48.5157C42.2312 48.5157 40.084 46.7264 40.084 44.1139C40.084 40.3206 42.7322 36.6346 42.7322 32.7338C42.7322 26.0775 33.3204 27.2943 33.3204 35.3105C33.3204 36.9924 33.5351 38.8533 34.2866 40.3921C32.8909 46.3685 30.0638 55.2435 30.0638 61.3988C30.0638 63.2955 30.3501 65.1564 30.529 67.0531C30.8869 67.4467 30.708 67.411 31.209 67.1962C36.2549 60.2537 36.0759 58.9296 38.3663 49.8398C39.6188 52.2017 42.8038 53.4542 45.3089 53.4542C55.9732 53.4542 60.7686 43.0761 60.7686 33.7001C60.7686 23.7156 52.1441 17.2383 42.6964 17.2383Z" fill="white"/>
</svg>
